<?xml version="1.0" standalone="no"?>
<!DOCTYPE svg PUBLIC "-//W3C//DTD SVG 20010904//EN"
 "http://www.w3.org/TR/2001/REC-SVG-20010904/DTD/svg10.dtd">
<svg version="1.0" xmlns="http://www.w3.org/2000/svg"
 width="1200.000000pt" height="1200.000000pt" viewBox="0 0 1200.000000 1200.000000"
 preserveAspectRatio="xMidYMid meet">

<g transform="translate(0.000000,1200.000000) scale(0.100000,-0.100000)"
fill="#000000" stroke="none">
<path d="M5761 11329 c-303 -32 -613 -137 -893 -302 -230 -136 -202 -109
-1962 -1866 -912 -911 -1692 -1696 -1734 -1746 -256 -304 -419 -667 -488
-1090 -26 -153 -26 -495 -1 -650 69 -422 232 -784 491 -1092 41 -48 820 -833
1732 -1744 1360 -1358 1678 -1670 1764 -1734 542 -399 1190 -535 1840 -384
316 73 639 234 899 448 47 39 833 819 1747 1733 1723 1725 1721 1723 1855
1939 266 428 380 985 304 1483 -61 402 -237 794 -487 1091 -42 50 -825 837
-1740 1751 -1215 1213 -1687 1678 -1752 1727 -332 245 -718 397 -1115 437
-120 12 -339 11 -460 -1z m524 -155 c374 -52 708 -196 1015 -440 112 -89 3347
-3324 3434 -3434 309 -391 457 -814 457 -1305 0 -242 -30 -425 -106 -653 -80
-238 -204 -460 -372 -666 -73 -89 -3171 -3195 -3323 -3331 -127 -114 -233
-191 -363 -266 -508 -291 -1121 -351 -1682 -165 -233 78 -444 192 -640 346
-97 76 -3323 3300 -3422 3420 -285 345 -449 760 -471 1195 -27 510 110 966
411 1369 79 106 301 332 1741 1772 908 908 1687 1679 1731 1714 250 198 512
328 814 405 249 63 510 76 776 39z"/>
<path d="M5824 10940 c-316 -31 -652 -155 -909 -335 -99 -70 -270 -238 -1738
-1704 -1036 -1034 -1660 -1664 -1714 -1731 -538 -666 -550 -1608 -30 -2305 65
-87 3249 -3283 3372 -3384 332 -275 768 -431 1200 -431 397 0 790 132 1125
378 86 64 3256 3223 3378 3367 422 499 550 1179 342 1805 -71 211 -193 428
-342 605 -124 147 -3281 3293 -3373 3361 -325 240 -689 368 -1075 379 -80 2
-186 0 -236 -5z m466 -164 c339 -68 585 -183 825 -387 44 -37 805 -794 1691
-1681 1768 -1771 1682 -1679 1808 -1933 81 -161 117 -265 153 -437 25 -120 27
-153 28 -338 0 -174 -4 -222 -23 -318 -61 -302 -184 -561 -374 -787 -99 -118
-3253 -3266 -3338 -3333 -179 -138 -428 -261 -626 -307 -197 -46 -227 -49
-439 -49 -193 0 -221 2 -340 28 -169 37 -271 73 -430 152 -253 126 -161 39
-1943 1818 -893 892 -1652 1655 -1686 1696 -255 304 -395 690 -396 1090 0 288
56 527 185 785 128 256 37 159 1849 1971 1682 1683 1713 1713 1890 1816 176
104 425 191 616 217 47 6 96 13 110 15 54 10 369 -3 440 -18z"/>
<path d="M5812 7680 c-311 -82 -542 -382 -542 -704 0 -336 241 -639 567 -712
74 -16 303 -18 318 -2 4 4 -5 38 -20 75 -15 37 -31 79 -36 92 -9 23 -10 23
-39 -18 -58 -79 -112 -47 -171 101 -15 40 -28 79 -29 86 0 8 22 12 80 12 44 0
80 4 80 9 0 4 -10 31 -21 60 l-22 51 -72 0 -73 0 -7 76 c-9 89 -2 385 9 402 9
14 322 17 330 3 3 -5 9 -47 12 -95 l7 -85 -134 -3 -134 -3 180 -54 180 -54
165 -1 165 -1 -3 -25 c-1 -14 -5 -35 -7 -47 -4 -19 2 -24 51 -38 31 -9 58 -15
59 -13 8 8 25 138 25 191 0 73 -25 195 -55 270 -82 201 -279 373 -491 427
-103 27 -270 26 -372 0z m243 -134 c25 -33 66 -126 79 -178 l6 -28 -140 0
c-105 0 -140 3 -140 13 1 26 59 159 85 192 36 47 74 48 110 1z m-285 -86 c-16
-47 -30 -93 -30 -102 0 -16 -12 -18 -110 -18 -60 0 -110 4 -110 9 0 21 138
134 203 166 39 19 71 34 73 32 2 -1 -10 -41 -26 -87z m547 34 c47 -27 163
-131 163 -145 0 -5 -49 -9 -110 -9 -98 0 -110 2 -110 18 0 9 -14 55 -30 102
-16 47 -30 86 -30 88 0 5 76 -30 117 -54z m-612 -361 c-4 -49 -9 -91 -12 -95
-5 -9 -287 -11 -295 -3 -8 8 9 92 28 143 l16 42 135 0 135 0 -7 -87z m869 45
c19 -51 36 -135 28 -143 -3 -3 -70 -5 -149 -5 -106 0 -145 3 -148 13 -2 6 -6
49 -10 95 l-6 82 134 0 135 0 16 -42z m-879 -270 c2 -7 6 -50 10 -95 l6 -83
-134 0 -135 0 -16 43 c-19 50 -36 134 -28 142 3 3 70 5 149 5 106 0 145 -3
148 -12z m45 -315 c0 -10 14 -56 30 -103 16 -46 28 -86 26 -87 -2 -2 -34 13
-73 32 -65 32 -203 145 -203 166 0 5 50 9 110 9 98 0 110 -2 110 -17z"/>
<path d="M6181 6554 c65 -163 120 -299 123 -301 2 -2 27 30 56 71 29 42 56 76
60 76 5 0 48 -34 96 -75 48 -41 90 -75 93 -75 14 0 123 133 114 138 -6 4 -51
41 -102 82 l-91 75 67 61 c37 33 62 63 57 66 -9 6 -579 178 -588 178 -2 0 49
-133 115 -296z"/>
<path d="M5785 5011 c-56 -9 -55 -35 3 -39 l42 -3 0 -255 0 -254 -36 0 c-28 0
-35 -3 -32 -17 3 -15 17 -18 96 -21 87 -3 92 -2 92 18 0 16 -6 20 -35 20 l-35
0 0 121 0 121 38 38 c63 63 173 65 201 4 6 -14 11 -80 11 -154 l0 -130 -46 0
c-38 0 -45 -3 -42 -17 3 -16 16 -18 103 -18 87 0 100 2 103 18 3 14 -4 17 -32
17 l-36 0 -1 128 c0 140 -11 185 -49 214 -58 42 -163 31 -219 -24 l-30 -30 -3
134 -3 133 -25 1 c-14 1 -43 -1 -65 -5z"/>
<path d="M7135 5008 c-92 -9 -113 -17 -100 -38 5 -8 35 -9 101 -4 l94 7 0
-257 0 -256 -101 0 c-90 0 -100 -2 -97 -17 3 -17 21 -18 218 -18 184 0 215 2
215 15 0 12 -18 16 -92 18 l-93 3 -2 277 -3 277 -25 1 c-14 1 -65 -3 -115 -8z"/>
<path d="M3275 5000 c-11 -19 6 -30 46 -30 l39 0 0 -254 0 -255 -52 -3 c-39
-2 -53 -7 -53 -18 0 -13 26 -15 175 -15 149 0 175 2 175 15 0 12 -19 16 -97
18 l-98 3 0 124 0 125 84 0 84 0 8 -47 c9 -48 28 -67 36 -36 7 26 3 201 -4
209 -13 12 -26 -7 -33 -46 l-7 -40 -84 0 -84 0 0 110 0 111 158 -3 157 -3 5
-65 c4 -52 9 -65 23 -68 16 -3 18 4 15 85 l-3 88 -242 3 c-156 1 -244 -1 -248
-8z"/>
<path d="M6375 5000 c-11 -19 6 -30 46 -30 l39 0 0 -254 0 -255 -52 -3 c-39
-2 -53 -7 -53 -18 0 -13 26 -15 175 -15 149 0 175 2 175 15 0 12 -19 16 -97
18 l-98 3 0 124 0 125 84 0 84 0 8 -47 c9 -48 28 -67 36 -36 7 26 3 201 -4
209 -13 12 -26 -7 -33 -46 l-7 -40 -84 0 -84 0 0 110 0 111 158 -3 157 -3 5
-65 c4 -52 9 -65 23 -68 16 -3 18 4 15 85 l-3 88 -242 3 c-156 1 -244 -1 -248
-8z"/>
<path d="M4656 4934 c-3 -9 -6 -40 -6 -69 l0 -54 -47 -3 c-35 -2 -48 -7 -48
-18 0 -11 13 -16 48 -18 l47 -3 0 -149 0 -148 30 -25 c16 -14 44 -28 61 -32
66 -15 199 26 199 61 0 18 -18 16 -85 -10 -62 -23 -111 -20 -140 9 -24 23 -25
29 -25 159 l0 135 103 3 c83 2 102 6 102 18 0 12 -19 16 -102 18 l-103 3 0 69
c0 53 -3 70 -14 70 -8 0 -17 -7 -20 -16z"/>
<path d="M4069 4817 c-91 -34 -139 -102 -139 -197 0 -147 132 -238 291 -200
63 15 121 62 101 82 -10 10 -16 10 -30 0 -45 -32 -80 -45 -131 -49 -94 -8
-165 42 -185 130 l-6 27 169 0 c163 0 171 1 182 21 12 24 5 79 -17 120 -32 62
-154 96 -235 66z m150 -40 c27 -13 56 -56 66 -99 l7 -28 -156 0 c-174 0 -177
1 -136 68 37 60 155 92 219 59z"/>
<path d="M5296 4815 c-116 -41 -166 -140 -132 -258 26 -88 111 -147 214 -147
72 0 172 51 172 87 0 21 -29 15 -67 -14 -32 -25 -45 -28 -109 -28 -78 0 -107
13 -148 69 -30 39 -30 152 0 193 44 61 153 90 231 62 26 -8 32 -17 37 -52 4
-22 12 -47 18 -54 17 -21 38 4 38 44 0 86 -138 140 -254 98z"/>
<path d="M7776 4818 c-52 -14 -112 -75 -127 -130 -6 -24 -9 -68 -6 -97 10 -99
79 -165 183 -177 136 -16 234 70 234 206 0 154 -123 240 -284 198z m150 -47
c109 -49 112 -246 5 -300 -134 -69 -272 48 -232 197 28 105 125 149 227 103z"/>
<path d="M8177 4796 c-8 -19 1 -26 32 -26 25 0 29 -8 81 -171 75 -236 94 -243
160 -59 18 50 36 88 40 83 4 -4 22 -49 40 -100 58 -166 77 -156 146 73 48 161
52 169 77 172 19 2 27 9 27 23 0 18 -6 20 -72 17 -57 -2 -73 -6 -73 -18 0 -8
10 -16 23 -18 12 -2 22 -6 22 -9 0 -12 -73 -268 -80 -281 -4 -8 -26 42 -55
125 -26 76 -50 144 -52 151 -4 8 6 12 31 12 29 0 36 4 36 20 0 18 -7 20 -80
20 -72 0 -80 -2 -80 -19 0 -12 8 -21 22 -23 14 -2 25 -15 33 -38 10 -32 7 -46
-30 -149 -23 -63 -44 -110 -47 -105 -6 10 -88 279 -88 288 0 3 9 6 20 6 13 0
20 7 20 20 0 18 -7 20 -74 20 -54 0 -75 -4 -79 -14z"/>
</g>
</svg>
