<?xml version="1.0" standalone="no"?>
<!DOCTYPE svg PUBLIC "-//W3C//DTD SVG 20010904//EN"
 "http://www.w3.org/TR/2001/REC-SVG-20010904/DTD/svg10.dtd">
<svg version="1.0" xmlns="http://www.w3.org/2000/svg"
 width="1200.000000pt" height="1200.000000pt" viewBox="0 0 1200.000000 1200.000000"
 preserveAspectRatio="xMidYMid meet">

<g transform="translate(0.000000,1200.000000) scale(0.100000,-0.100000)"
fill="#000000" stroke="none">
<path d="M3183 7250 c-78 -17 -149 -65 -179 -123 -36 -67 -34 -188 3 -229 17
-19 89 -45 99 -36 3 4 -2 21 -11 39 -22 41 -25 161 -6 207 13 30 54 62 81 62
7 0 10 -118 10 -370 l0 -370 80 0 80 0 0 205 0 205 80 0 80 0 0 40 0 40 -80 0
-80 0 0 111 c0 110 0 111 23 106 138 -34 207 -8 207 81 l0 27 -87 0 c-49 0
-126 3 -173 7 -47 4 -104 3 -127 -2z"/>
<path d="M5893 7250 c-78 -17 -149 -65 -179 -123 -36 -67 -34 -188 3 -229 17
-19 89 -45 99 -36 3 4 -2 21 -11 39 -22 41 -25 161 -6 207 13 30 54 62 81 62
7 0 10 -118 10 -370 l0 -370 80 0 80 0 0 205 0 205 80 0 80 0 0 40 0 40 -80 0
-80 0 0 111 c0 110 0 111 23 106 138 -34 207 -8 207 81 l0 27 -87 0 c-49 0
-126 3 -173 7 -47 4 -104 3 -127 -2z"/>
<path d="M5138 7187 l-68 -9 0 -374 0 -374 79 0 80 0 3 204 c3 184 5 206 22
225 11 12 29 21 41 21 43 0 50 -24 55 -184 6 -166 19 -211 73 -250 39 -29 125
-29 164 0 32 23 69 91 79 147 5 33 4 37 -14 37 -14 0 -24 -10 -32 -35 -15 -45
-35 -65 -65 -65 -48 0 -55 20 -55 167 0 152 -11 202 -52 243 -48 48 -143 50
-193 4 l-25 -23 0 139 c0 106 -3 140 -12 139 -7 -1 -43 -6 -80 -12z"/>
<path d="M6477 7187 l-68 -9 3 -327 c3 -307 4 -328 23 -361 30 -50 77 -72 143
-66 86 8 146 70 167 174 6 28 4 32 -13 32 -14 0 -24 -10 -32 -35 -6 -19 -21
-42 -33 -50 -30 -21 -74 -19 -87 4 -6 13 -10 137 -10 335 0 247 -3 316 -12
315 -7 -1 -44 -6 -81 -12z"/>
<path d="M4238 7137 l-68 -9 0 -74 c0 -59 -3 -74 -15 -74 -8 0 -15 -9 -15 -20
0 -11 6 -20 14 -20 12 0 15 -37 18 -207 3 -187 5 -211 23 -243 30 -50 77 -72
143 -66 86 8 146 70 167 174 6 28 4 32 -13 32 -14 0 -24 -10 -32 -35 -6 -19
-21 -42 -33 -50 -30 -21 -74 -19 -87 4 -6 12 -10 96 -10 205 l0 186 35 0 c28
0 35 4 35 20 0 16 -7 20 -35 20 l-35 0 0 85 c0 62 -3 85 -12 84 -7 -1 -43 -6
-80 -12z"/>
<path d="M7908 6989 c-42 -24 -8 -113 40 -107 l27 3 -1 -110 c0 -119 -18 -180
-65 -223 -29 -28 -75 -29 -89 -3 -6 12 -10 103 -10 225 l0 206 -78 0 -78 0 0
-196 c-1 -179 -3 -198 -21 -222 -11 -15 -31 -29 -43 -30 -45 -7 -50 15 -50
240 l0 208 -81 0 -81 0 4 -227 c3 -247 9 -273 63 -309 63 -41 170 -21 204 38
20 34 24 35 41 3 17 -31 85 -65 131 -65 49 1 112 32 143 73 76 100 105 325 57
448 -18 49 -73 72 -113 48z"/>
<path d="M3796 6975 c-50 -17 -100 -66 -127 -124 -17 -35 -23 -70 -27 -152 -4
-98 -2 -111 20 -161 29 -63 64 -92 132 -109 118 -30 234 29 296 151 30 59 6
60 -48 2 -52 -56 -84 -72 -143 -72 -31 0 -47 7 -70 29 -16 16 -29 38 -29 48 0
10 -3 28 -6 39 -5 18 0 22 32 29 88 16 154 72 175 148 36 134 -67 221 -205
172z m115 -62 c19 -22 16 -90 -4 -130 -17 -32 -73 -73 -100 -73 -12 0 -14 9
-10 43 16 136 71 213 114 160z"/>
<path d="M4686 6975 c-93 -33 -138 -118 -144 -276 -4 -93 -1 -112 18 -157 39
-90 112 -130 216 -119 92 9 166 64 214 157 30 59 6 60 -48 2 -51 -55 -84 -72
-140 -72 -78 0 -112 54 -112 177 0 132 37 243 80 243 31 0 50 -28 50 -76 0
-38 3 -44 25 -50 36 -9 55 11 55 58 0 57 -23 93 -70 112 -49 19 -92 20 -144 1z"/>
<path d="M6949 6976 c-109 -39 -161 -137 -162 -305 0 -137 47 -215 146 -242
146 -39 253 60 265 246 5 82 6 86 31 92 36 8 115 49 129 66 7 8 10 22 6 31 -5
14 -9 14 -34 -4 -36 -26 -110 -52 -127 -46 -7 3 -13 16 -13 28 0 43 -43 102
-90 126 -49 25 -97 27 -151 8z m128 -72 c13 -21 14 -30 5 -45 -19 -30 -15 -77
8 -91 15 -10 20 -24 20 -55 0 -63 -19 -139 -42 -168 -30 -38 -75 -32 -102 15
-39 65 -22 284 26 345 26 33 63 33 85 -1z"/>
<path d="M2006 6824 c-14 -14 -16 -105 -16 -859 0 -754 2 -845 16 -859 8 -9
24 -16 34 -16 10 0 26 7 34 16 14 14 16 105 16 858 0 804 -1 844 -18 859 -23
21 -46 22 -66 1z"/>
<path d="M1570 6600 c-20 -20 -20 -33 -20 -633 0 -538 2 -615 16 -635 18 -27
55 -29 77 -4 15 17 17 76 17 639 0 588 -1 621 -18 636 -25 22 -48 21 -72 -3z"/>
<path d="M2220 6600 c-20 -20 -20 -33 -20 -633 0 -538 2 -615 16 -635 18 -27
55 -29 77 -4 15 17 17 76 17 639 0 588 -1 621 -18 636 -25 22 -48 21 -72 -3z"/>
<path d="M1787 6382 c-15 -17 -17 -60 -17 -420 0 -435 0 -432 55 -432 54 0 55
11 55 435 0 337 -2 394 -16 413 -18 27 -55 29 -77 4z"/>
<path d="M2416 6378 c-14 -19 -16 -76 -16 -413 0 -424 1 -435 55 -435 55 0 55
-3 55 434 0 378 -1 404 -18 419 -26 23 -58 21 -76 -5z"/>
<path d="M1352 6168 c-17 -17 -17 -389 0 -406 7 -7 24 -12 38 -12 48 0 50 11
50 215 0 204 -2 215 -50 215 -14 0 -31 -5 -38 -12z"/>
<path d="M974 5994 c-16 -24 -16 -29 -3 -53 14 -24 20 -26 96 -29 78 -3 83 -2
98 22 14 22 15 29 3 53 -13 27 -16 28 -95 31 -79 3 -83 2 -99 -24z"/>
<path d="M2660 6005 c-7 -8 -12 -26 -12 -40 0 -14 5 -32 12 -40 11 -13 483
-15 4169 -15 3220 0 4160 3 4169 12 17 17 15 64 -4 82 -14 15 -406 16 -4168
16 -3684 0 -4155 -2 -4166 -15z"/>
</g>
</svg>
